<svg xmlns="http://www.w3.org/2000/svg" width="176" height="52"><path fill="#333" fill-rule="evenodd" d="M0 16.372v.128l29.754 13.764 29.859-13.811v-.035L29.754 2.608Zm10.727.064 19.028-8.802 19.03 8.802-19.031 8.801ZM29.754 35.61 0 22.052v5.014l29.754 13.59L59.613 27.02v-5.015Zm0 10.17L0 32.22v5.015l29.754 13.591L59.613 37.19v-5.014Zm139.462-19.56a8.56 8.56 0 0 0-2.285-5.892 7.7 7.7 0 0 0-2.473-1.768 7.3 7.3 0 0 0-3.015-.636 7.3 7.3 0 0 0-3.015.636 7.7 7.7 0 0 0-2.473 1.768 8.57 8.57 0 0 0-2.285 5.893 8.56 8.56 0 0 0 2.285 5.893 7.7 7.7 0 0 0 2.473 1.767 7.3 7.3 0 0 0 3.015.637 7.3 7.3 0 0 0 3.015-.637 7.7 7.7 0 0 0 2.473-1.767 8.56 8.56 0 0 0 2.285-5.893Zm6.784 0q0 3.066-1.13 5.681a13.85 13.85 0 0 1-3.11 4.526q-1.979 1.91-4.64 3.017-2.662 1.108-5.677 1.108c-3.015 0-3.894-.37-5.653-1.108a14.7 14.7 0 0 1-4.617-3.04 14.1 14.1 0 0 1-3.11-4.55q-1.13-2.616-1.13-5.633 0-2.97 1.154-5.586a14.7 14.7 0 0 1 3.133-4.573 14.5 14.5 0 0 1 4.617-3.064q2.638-1.108 5.606-1.108 3.015 0 5.677 1.108 2.661 1.107 4.64 3.017 1.98 1.909 3.11 4.549t1.13 5.657Zm-31.422 13.483a9 9 0 0 1-1.814.613 9.2 9.2 0 0 1-2.096.236q-1.507 0-2.898-.4a6.35 6.35 0 0 1-2.426-1.297q-1.035-.895-1.649-2.334-.612-1.437-.612-3.465V.717h6.925v31.16q0 1.698.683 2.334a2.3 2.3 0 0 0 1.625.637q1.179 0 2.262-.707ZM130.02 12.55l-12.249 32.386q-1.365 3.63-3.58 5.233-2.214 1.602-5.277 1.603a8 8 0 0 1-1.036-.071 8 8 0 0 1-1.083-.212l-2.262-6.317a9 9 0 0 0 1.65.59 6.6 6.6 0 0 0 1.6.211q1.603 0 2.922-.73 1.319-.731 2.025-2.711l.943-2.734-10.506-27.248h7.396l6.266 17.536 5.889-17.536Zm-28.502-4.102H83.806v8.769h17.478v5.94H83.806v16.688h-7.16V2.179h24.873v6.27Z"/></svg>