<svg xmlns="http://www.w3.org/2000/svg" xmlns:xlink="http://www.w3.org/1999/xlink" width="536" height="346"><defs><rect id="a" width="536" height="346" rx="8"/></defs><g fill="none" fill-rule="evenodd"><mask id="b" fill="#fff"><use xlink:href="#a"/></mask><use xlink:href="#a" fill="#e8eaf6" fill-rule="nonzero"/><g mask="url(#b)"><path fill="#242a45" d="M-3.53.197h547v59h-547Z"/><g fill="#fff" transform="translate(22.47 14.197)"><circle cx="16" cy="16" r="16" opacity=".245"/><circle cx="477" cy="16" r="16" opacity=".104"/><g transform="translate(47 6)"><rect width="120" height="6" opacity=".75" rx="3"/><rect width="64" height="6" y="14" opacity=".25" rx="3"/></g></g></g><g mask="url(#b)"><g transform="translate(57 93)"><rect width="261" height="316" fill="#fff" rx="8"/><rect width="128" height="316" x="295" fill="#fff" rx="8"/><rect width="120" height="6" x="78.47" y="38.197" fill="#242a45" opacity=".5" rx="3"/></g></g><g transform="translate(88.47 115.197)"><circle cx="16" cy="26" r="16" fill="#f98e5d"/><rect width="88" height="6" x="284" fill="#242a45" opacity=".25" rx="3"/><rect width="88" height="6" x="284" y="20" fill="#242a45" opacity=".25" rx="3"/><rect width="88" height="6" x="284" y="40" fill="#242a45" opacity=".25" rx="3"/><rect width="88" height="6" x="284" y="60" fill="#242a45" opacity=".25" rx="3"/><rect width="88" height="6" x="284" y="94" fill="#242a45" opacity=".25" rx="3"/><rect width="88" height="6" x="284" y="114" fill="#242a45" opacity=".25" rx="3"/><rect width="88" height="6" x="284" y="134" fill="#242a45" opacity=".25" rx="3"/><rect width="64" height="6" x="47" y="30" fill="#242a45" opacity=".25" rx="3"/></g><g transform="translate(88.47 181.197)"><circle cx="16" cy="16" r="16" fill="#6ac6d6"/><rect width="120" height="6" x="47" y="6" fill="#242a45" opacity=".5" rx="3"/><rect width="64" height="6" x="47" y="20" fill="#242a45" opacity=".25" rx="3"/></g><g transform="translate(88.47 237.197)"><circle cx="16" cy="16" r="16" fill="#a47ed4"/><rect width="120" height="6" x="47" y="6" fill="#242a45" opacity=".5" rx="3"/><rect width="64" height="6" x="47" y="20" fill="#242a45" opacity=".25" rx="3"/></g><g transform="translate(88.47 293.197)"><circle cx="16" cy="16" r="16" fill="#ec7878"/><rect width="120" height="6" x="47" y="6" fill="#242a45" opacity=".5" rx="3"/><rect width="64" height="6" x="47" y="20" fill="#242a45" opacity=".25" rx="3"/></g></g></svg>